<svg width="20" height="38" viewBox="0 0 20 38" fill="none" xmlns="http://www.w3.org/2000/svg">
<path d="M20 0H6.5C2.91015 0 0 2.91015 0 6.5V31.5C0 35.0899 2.91015 38 6.5 38H20V0Z" fill="#E8E6E6"/>
<path d="M12.7693 23.5385L12.1472 23.0994C10.7161 22.0892 9.43029 20.8875 8.32565 19.528C8.05751 19.198 8.05751 18.7252 8.32565 18.3951C9.43029 17.0356 10.7161 15.8339 12.1472 14.8237L12.7693 14.3846" fill="#E8E6E6"/>
<path d="M12.7693 23.5385L12.1472 23.0994C10.7161 22.0892 9.43029 20.8875 8.32565 19.528C8.05751 19.198 8.05751 18.7252 8.32565 18.3951C9.43029 17.0356 10.7161 15.8339 12.1472 14.8237L12.7693 14.3846" stroke="#7D7D7D" stroke-width="2" stroke-linecap="round" stroke-linejoin="round"/>
</svg>
