<svg width="20" height="38" viewBox="0 0 20 38" fill="none" xmlns="http://www.w3.org/2000/svg">
<path d="M0 0H13.5C17.0899 0 20 2.91015 20 6.5V31.5C20 35.0899 17.0899 38 13.5 38H0V0Z" fill="#E8E6E6"/>
<path d="M7.23096 23.5385L7.85299 23.0994C9.2841 22.0892 10.57 20.8875 11.6746 19.528C11.9427 19.198 11.9427 18.7252 11.6746 18.3951C10.57 17.0356 9.2841 15.8339 7.85299 14.8237L7.23096 14.3846" fill="#E8E6E6"/>
<path d="M7.23096 23.5385L7.85299 23.0994C9.2841 22.0892 10.57 20.8875 11.6746 19.528C11.9427 19.198 11.9427 18.7252 11.6746 18.3951C10.57 17.0356 9.2841 15.8339 7.85299 14.8237L7.23096 14.3846" stroke="#7D7D7D" stroke-width="2" stroke-linecap="round" stroke-linejoin="round"/>
</svg>
