<svg width="39" height="39" viewBox="0 0 39 39" fill="none" xmlns="http://www.w3.org/2000/svg">
<path d="M19.5294 38.9407C30.2826 38.9407 38.9998 30.2235 38.9998 19.4703C38.9998 8.71715 30.2826 0 19.5294 0C8.77623 0 0.059082 8.71715 0.059082 19.4703C0.059082 30.2235 8.77623 38.9407 19.5294 38.9407Z" fill="white"/>
<path d="M27.4886 34.7234C24.0318 34.7321 20.6787 33.5395 18.0083 31.3444C14.6293 28.5963 12.6676 24.474 12.6589 20.1185C12.6589 17.5691 14.2059 13.8617 15.3639 11.779C11.4836 15.0975 9.30586 19.9716 9.4182 25.079C9.4182 26.6605 9.64292 28.2419 10.0923 29.7543C10.7059 32.1308 11.9935 34.2741 13.791 35.9333C14.5688 36.6074 15.4762 37.1345 16.4441 37.4802C17.3083 37.8086 18.2157 38.0074 19.1404 38.0765H19.2614C19.4083 38.0765 19.5553 38.0852 19.7022 38.0852C23.7207 38.0765 27.6269 36.7629 30.8244 34.3432C29.7441 34.5851 28.6121 34.7148 27.4886 34.7234Z" fill="#1774B4"/>
<path d="M34.86 9.06543C33.9181 8.64197 32.9415 8.28764 31.939 8.02838C33.2786 10.3876 33.3909 12.0556 33.3909 14.9593C33.581 23.4284 26.9008 30.4543 18.4316 30.7049C21.2921 32.9086 24.8181 34.0753 28.4304 34.0148C29.4934 34.0234 30.5477 33.8247 31.5329 33.4185C35.9662 30.0136 38.2131 25.5543 38.2131 19.5395C38.2131 15.1667 37.3662 12.2284 34.86 9.06543Z" fill="url(#paint0_linear_114_1401)"/>
<path d="M0.819336 19.358C0.819336 27.0148 6.80823 35.2247 13.5749 36.9963C10.1008 33.8506 8.1391 29.3741 8.18231 24.6902C8.1996 15.9618 14.3441 8.44324 22.8996 6.7062C26.7107 5.92843 30.6687 6.36913 34.2119 7.9679C34.2638 7.99382 34.307 8.01112 34.3589 8.03705C28.0502 -0.146901 16.2971 -1.66788 8.11316 4.64076C3.54156 8.15804 0.845262 13.5938 0.819336 19.358Z" fill="url(#paint1_linear_114_1401)"/>
<defs>
<linearGradient id="paint0_linear_114_1401" x1="26.0353" y1="18.2625" x2="35.8586" y2="29.8774" gradientUnits="userSpaceOnUse">
<stop stop-color="#D3EEF6"/>
<stop offset="0.448" stop-color="#A3D0E0"/>
<stop offset="1" stop-color="#72A3C3"/>
</linearGradient>
<linearGradient id="paint1_linear_114_1401" x1="17.5314" y1="43.3475" x2="17.5314" y2="-5.60112" gradientUnits="userSpaceOnUse">
<stop stop-color="#07AF8D"/>
<stop offset="0.634" stop-color="#2A8CC5"/>
<stop offset="1" stop-color="#1A478A"/>
</linearGradient>
</defs>
</svg>
