<svg xmlns="http://www.w3.org/2000/svg" viewBox="0 0 1440 320">
  <path fill="#0099ff" fill-opacity="1" d="M0,160L30,149.3C60,139,120,117,180,96C240,75,300,53,360,74.7C420,96,480,160,540,186.7C600,213,660,203,720,186.7C780,171,840,149,900,144C960,139,1020,149,1080,154.7C1140,160,1200,160,1260,165.3C1320,171,1380,181,1410,186.7L1440,192L1440,320L1410,320C1380,320,1320,320,1260,320C1200,320,1140,320,1080,320C1020,320,960,320,900,320C840,320,780,320,720,320C660,320,600,320,540,320C480,320,420,320,360,320C300,320,240,320,180,320C120,320,60,320,30,320L0,320Z"></path>
</svg>
